<svg width="183" height="53" viewBox="0 0 183 53" fill="none" xmlns="http://www.w3.org/2000/svg">
<rect x="89" y="41.001" width="84" height="12" rx="6" fill="#FFF1DA"/>
<rect x="163" y="0.000976562" width="20" height="12" rx="6" fill="#FFF1DA"/>
<rect y="41.001" width="20" height="12" rx="6" fill="#FFF1DA"/>
<path d="M23.2523 9.07587V15.2554H15.8052V37.0024H8.04124V15.2554H0.673401V9.07587H23.2523Z" fill="black"/>
<path d="M33.8887 18.7016C34.7602 17.434 35.8165 16.4305 37.0577 15.6911C38.2989 14.9517 39.6325 14.582 41.0585 14.582V22.8609H38.8799C37.1897 22.8609 35.9354 23.191 35.1167 23.8512C34.2981 24.5114 33.8887 25.6601 33.8887 27.2974V37.0024H26.1248V14.78H33.8887V18.7016Z" fill="black"/>
<path d="M42.5743 25.8714C42.5743 23.5739 42.9836 21.5669 43.8023 19.8504C44.6473 18.1338 45.7829 16.8134 47.2089 15.8891C48.6614 14.9649 50.2722 14.5027 52.0416 14.5027C53.5732 14.5027 54.8937 14.8064 56.0028 15.4138C57.1119 16.0212 57.9702 16.8398 58.5776 17.8698V14.78H66.3415V37.0024H58.5776V33.9126C57.9702 34.9426 57.0987 35.7612 55.9632 36.3686C54.854 36.976 53.5468 37.2797 52.0416 37.2797C50.2722 37.2797 48.6614 36.8175 47.2089 35.8932C45.7829 34.969 44.6473 33.6486 43.8023 31.932C42.9836 30.1891 42.5743 28.1689 42.5743 25.8714ZM58.5776 25.8714C58.5776 24.4454 58.1815 23.323 57.3892 22.5044C56.6234 21.6857 55.6727 21.2764 54.5371 21.2764C53.3752 21.2764 52.4113 21.6857 51.6455 22.5044C50.8796 23.2966 50.4967 24.4189 50.4967 25.8714C50.4967 27.2974 50.8796 28.433 51.6455 29.278C52.4113 30.0967 53.3752 30.506 54.5371 30.506C55.6727 30.506 56.6234 30.0967 57.3892 29.278C58.1815 28.4594 58.5776 27.3238 58.5776 25.8714Z" fill="black"/>
<path d="M81.4214 29.6741L85.5806 14.78H93.8596L86.2144 37.0024H76.5491L68.9039 14.78H77.1829L81.4214 29.6741Z" fill="black"/>
<path d="M117.722 25.6337C117.722 26.2411 117.683 26.8485 117.604 27.4559H102.908C102.987 28.6706 103.317 29.5817 103.898 30.1891C104.505 30.7701 105.271 31.0606 106.195 31.0606C107.489 31.0606 108.414 30.4796 108.968 29.3176H117.247C116.904 30.8493 116.23 32.2225 115.227 33.4373C114.25 34.6257 113.009 35.5631 111.503 36.2498C109.998 36.9364 108.334 37.2797 106.512 37.2797C104.32 37.2797 102.366 36.8175 100.65 35.8932C98.9595 34.969 97.6259 33.6486 96.6488 31.932C95.6981 30.2155 95.2228 28.1953 95.2228 25.8714C95.2228 23.5475 95.6981 21.5405 96.6488 19.8504C97.5995 18.1338 98.9199 16.8134 100.61 15.8891C102.327 14.9649 104.294 14.5027 106.512 14.5027C108.704 14.5027 110.645 14.9517 112.335 15.8495C114.025 16.7474 115.346 18.0414 116.296 19.7315C117.247 21.3952 117.722 23.3626 117.722 25.6337ZM109.8 23.6927C109.8 22.742 109.483 22.0026 108.849 21.4745C108.216 20.9199 107.423 20.6426 106.473 20.6426C105.522 20.6426 104.743 20.9067 104.135 21.4348C103.528 21.9366 103.132 22.6892 102.947 23.6927H109.8Z" fill="black"/>
<path d="M128.664 7.68945V37.0024H120.9V7.68945H128.664Z" fill="black"/>
<path d="M140.849 7.68945V37.0024H133.085V7.68945H140.849Z" fill="black"/>
<path d="M155.609 37.2797C153.391 37.2797 151.397 36.8175 149.628 35.8932C147.885 34.969 146.512 33.6486 145.508 31.932C144.505 30.2155 144.003 28.1953 144.003 25.8714C144.003 23.5739 144.505 21.5669 145.508 19.8504C146.538 18.1338 147.924 16.8134 149.667 15.8891C151.437 14.9649 153.431 14.5027 155.649 14.5027C157.867 14.5027 159.848 14.9649 161.591 15.8891C163.36 16.8134 164.746 18.1338 165.75 19.8504C166.78 21.5669 167.295 23.5739 167.295 25.8714C167.295 28.1689 166.78 30.1891 165.75 31.932C164.746 33.6486 163.36 34.969 161.591 35.8932C159.821 36.8175 157.827 37.2797 155.609 37.2797ZM155.609 30.5456C156.692 30.5456 157.59 30.1495 158.303 29.3573C159.042 28.5386 159.412 27.3766 159.412 25.8714C159.412 24.3661 159.042 23.2174 158.303 22.4251C157.59 21.6329 156.705 21.2368 155.649 21.2368C154.592 21.2368 153.708 21.6329 152.995 22.4251C152.282 23.2174 151.925 24.3661 151.925 25.8714C151.925 27.4031 152.269 28.565 152.955 29.3573C153.642 30.1495 154.526 30.5456 155.609 30.5456Z" fill="black"/>
</svg>
